<?xml version="1.0" encoding="iso-8859-1"?>
<!-- Generator: Adobe Illustrator 16.2.0, SVG Export Plug-In . SVG Version: 6.00 Build 0)  -->
<!DOCTYPE svg PUBLIC "-//W3C//DTD SVG 1.1//EN" "http://www.w3.org/Graphics/SVG/1.1/DTD/svg11.dtd">
<svg version="1.1" id="&#x421;&#x43B;&#x43E;&#x439;_1"
	 xmlns="http://www.w3.org/2000/svg" xmlns:xlink="http://www.w3.org/1999/xlink" x="0px" y="0px" width="419.53px"
	 height="297.64px" viewBox="0 0 419.53 297.64" style="enable-background:new 0 0 419.53 297.64;" xml:space="preserve">
<g>
	<path d="M110.069,179.405h22.367v26.47h-22.367v43.98H80.041v-43.98H2.314l-0.865-20.09l77.603-133.57
		h31.016V179.405z M32.96,179.405h47.081V96.874l-2.224,4.344L32.96,179.405z"/>
	<path d="M269.6,166.645c0,28.417-4.841,49.841-14.52,64.274c-9.681,14.436-24.406,21.651-44.177,21.651
		c-19.443,0-34.086-7.035-43.93-21.108c-9.845-14.07-14.89-34.907-15.137-62.509v-34.207c0-28.415,4.838-49.726,14.52-63.935
		c9.679-14.206,24.446-21.312,44.3-21.312c19.688,0,34.372,6.923,44.053,20.769c9.679,13.846,14.644,34.57,14.891,62.17V166.645z
		 M239.572,129.723c0-18.55-2.308-32.147-6.92-40.791c-4.615-8.641-11.946-12.963-21.996-12.963
		c-9.805,0-17.012,4.096-21.625,12.285c-4.615,8.191-7.043,20.972-7.291,38.347v44.795c0,18.461,2.348,32.218,7.043,41.266
		c4.696,9.05,12.067,13.574,22.119,13.574c9.639,0,16.764-4.185,21.378-12.556c4.613-8.369,7.044-21.468,7.291-39.297V129.723z"/>
	<path d="M397.743,179.405h22.367v26.47h-22.367v43.98h-30.028v-43.98h-77.727l-0.865-20.09l77.603-133.57
		h31.016V179.405z M320.635,179.405h47.081V96.874l-2.224,4.344L320.635,179.405z"/>
<path style="fill:#da0034;" d="M249.552,39.952c-20.784-12.904-56.487-13.378-79.144,0.282l-14.86-24.678
	c31.722-19.121,79.035-18.807,109.193-0.074L249.552,39.952z"/>
<path style="fill:#1d9c55;" d="M173.816,260.365c20.053,12.452,54.517,12.902,76.375-0.272l14.349,23.816
	c-30.61,18.453-76.283,18.142-105.383,0.07L173.816,260.365z"/>
</g>
</svg>
