<?xml version="1.0" encoding="iso-8859-1"?>
<!-- Generator: Adobe Illustrator 16.2.0, SVG Export Plug-In . SVG Version: 6.00 Build 0)  -->
<!DOCTYPE svg PUBLIC "-//W3C//DTD SVG 1.1//EN" "http://www.w3.org/Graphics/SVG/1.1/DTD/svg11.dtd">
<svg version="1.1" id="&#x421;&#x43B;&#x43E;&#x439;_1"
	 xmlns="http://www.w3.org/2000/svg" xmlns:xlink="http://www.w3.org/1999/xlink" x="0px" y="0px" width="841.89px"
	 height="595.28px" viewBox="0 0 841.89 595.28" style="enable-background:new 0 0 841.89 595.28;" xml:space="preserve">
<g>
	<path style="fill:#1A171B;" d="M187.131,182.898c-7.355,0.081-13.87,1.808-19.541,5.182c-5.667,3.368-10.123,7.9-13.361,13.591
		c-3.236,5.688-4.883,12.049-4.948,19.08c0.064,7.035,1.711,13.396,4.948,19.083c3.238,5.691,7.694,10.224,13.361,13.595
		c5.67,3.371,12.185,5.098,19.541,5.178c5.904-0.028,11.342-1.214,16.311-3.563c4.971-2.345,9.215-5.685,12.736-10.015l-8.509-8.507
		c-2.837,3.217-5.95,5.632-9.336,7.241c-3.385,1.605-7.118,2.411-11.203,2.411c-5.047-0.056-9.472-1.214-13.273-3.482
		c-3.798-2.261-6.764-5.3-8.893-9.125c-2.13-3.821-3.213-8.092-3.245-12.817c0.032-4.724,1.115-8.992,3.245-12.813
		c2.129-3.825,5.095-6.864,8.893-9.128c3.801-2.265,8.226-3.423,13.273-3.479c4.084,0,7.818,0.806,11.203,2.415
		c3.386,1.605,6.499,4.02,9.336,7.237l8.509-8.511c-3.521-4.327-7.766-7.663-12.736-10.011
		C198.474,184.113,193.035,182.927,187.131,182.898"/>
</g>
<polygon style="fill:#1A171B;" points="264.698,198.563 235.445,257.055 221.442,257.055 257.645,184.455 271.647,184.455 
	307.954,257.055 294.054,257.055 "/>
<path d="M314.227,257.938c23.558-12.481,28.839-61.57,28.839-61.57h4.662v60.697h12.435v-72.614l-27.76,0.123
	c-0.625,10.021-2.808,49.807-23.403,62.442C312.122,253.255,312.122,253.255,314.227,257.938"/>
<path style="fill:#1A171B;" d="M385.346,222.82h2.076c3.406,0.056,6.224,1.064,8.461,3.04c2.236,1.971,3.398,4.588,3.48,7.858
	c-0.082,3.27-1.244,5.894-3.48,7.861c-2.237,1.972-5.055,2.987-8.461,3.04h-2.076V222.82z M385.346,210.388v-25.937h-12.434v72.6
	h14.51c6.922-0.115,12.67-2.292,17.247-6.529c4.581-4.236,6.957-9.84,7.128-16.805c-0.171-6.961-2.547-12.562-7.128-16.798
	c-4.577-4.24-10.325-6.417-17.247-6.532H385.346z"/>
<path style="fill:#1A171B;" d="M424.932,204.379v52.672h12.436v-52.672C433.277,202.617,428.17,202.718,424.932,204.379"/>
<path style="fill:#1A171B;" d="M471.595,220.751c0.052-4.721,1.214-8.992,3.479-12.816c2.261-3.817,5.308-6.86,9.128-9.125
	c3.817-2.265,8.092-3.423,12.816-3.475c4.722,0.052,8.992,1.21,12.813,3.475c3.82,2.265,6.863,5.307,9.128,9.125
	c2.265,3.825,3.423,8.096,3.479,12.816c-0.056,4.725-1.214,9-3.479,12.817c-2.265,3.821-5.308,6.867-9.128,9.128
	c-3.821,2.265-8.092,3.423-12.813,3.479c-4.725-0.056-8.999-1.214-12.816-3.479c-3.82-2.261-6.867-5.307-9.128-9.128
	C472.809,229.75,471.646,225.476,471.595,220.751 M459.162,220.751c0.08,7.035,1.808,13.396,5.178,19.087
	c3.371,5.688,7.9,10.217,13.595,13.591c5.688,3.374,12.046,5.098,19.083,5.182c7.031-0.084,13.393-1.808,19.08-5.182
	c5.691-3.375,10.221-7.903,13.591-13.591c3.375-5.691,5.102-12.052,5.183-19.087c-0.081-7.031-1.808-13.392-5.183-19.083
	c-3.37-5.688-7.899-10.217-13.591-13.591c-5.688-3.371-12.049-5.098-19.08-5.178c-7.037,0.081-13.396,1.808-19.083,5.178
	c-5.694,3.375-10.224,7.904-13.595,13.591C460.97,207.359,459.242,213.72,459.162,220.751"/>
<path style="fill:#1D9C55;" d="M281.845,242.717c-11.295,4.91-22.887,4.889-34.346,0.021l4.878-11.487
	c8.378,3.559,16.407,3.535,24.494,0.021L281.845,242.717z"/>
<path style="fill:#DA0034;" d="M455.254,201.926c-13.207-6.264-30.504-6.797-48.084,0.164l-4.592-11.606
	c20.315-8.043,41.259-7.785,58.021,0.164L455.254,201.926z"/>
<path style="fill:#1D9C55;" d="M480.008,262.62c9.002,5.59,24.474,5.792,34.286-0.122l6.441,10.691
	c-13.741,8.284-34.245,8.144-47.309,0.031L480.008,262.62z"/>
<path style="fill:#DA0034;" d="M204.065,179.947c-9.004-5.59-24.473-5.796-34.289,0.122l-6.438-10.691
	c13.743-8.284,34.241-8.148,47.307-0.032L204.065,179.947z"/>
<g>
	<path d="M192.131,380.898c-7.355,0.08-13.87,1.808-19.541,5.182c-5.667,3.367-10.123,7.9-13.361,13.592
		c-3.236,5.688-4.883,12.049-4.948,19.079c0.064,7.034,1.711,13.396,4.948,19.083c3.238,5.691,7.694,10.225,13.361,13.596
		c5.67,3.37,12.185,5.098,19.541,5.178c5.904-0.027,11.342-1.215,16.311-3.563c4.971-2.346,9.215-5.685,12.736-10.015l-8.509-8.507
		c-2.837,3.217-5.95,5.631-9.336,7.24c-3.385,1.605-7.118,2.411-11.203,2.411c-5.047-0.056-9.472-1.214-13.273-3.482
		c-3.798-2.261-6.764-5.3-8.893-9.124c-2.13-3.821-3.213-8.093-3.245-12.817c0.032-4.724,1.115-8.991,3.245-12.813
		c2.129-3.825,5.095-6.864,8.893-9.128c3.801-2.266,8.226-3.424,13.273-3.479c4.084,0,7.818,0.806,11.203,2.415
		c3.386,1.605,6.499,4.02,9.336,7.236l8.509-8.51c-3.521-4.327-7.766-7.663-12.736-10.012
		C203.474,382.113,198.035,380.927,192.131,380.898"/>
</g>
<polygon points="269.698,396.563 240.445,455.055 226.442,455.055 262.645,382.455 276.647,382.455 312.954,455.055 
	299.054,455.055 "/>
<g>
	<path d="M319.227,455.938c23.558-12.481,28.839-61.57,28.839-61.57h4.662v60.697h12.435v-72.613l-27.76,0.123
		c-0.625,10.021-2.808,49.807-23.403,62.441C317.122,451.255,317.122,451.255,319.227,455.938"/>
	<path d="M390.346,420.82h2.076c3.406,0.057,6.224,1.064,8.461,3.039c2.236,1.972,3.398,4.589,3.48,7.858
		c-0.082,3.27-1.244,5.894-3.48,7.861c-2.237,1.972-5.055,2.987-8.461,3.04h-2.076V420.82z M390.346,408.388v-25.937h-12.434v72.6
		h14.51c6.922-0.115,12.67-2.292,17.247-6.528c4.581-4.236,6.957-9.84,7.128-16.805c-0.171-6.962-2.547-12.562-7.128-16.798
		c-4.577-4.24-10.325-6.417-17.247-6.532H390.346z"/>
	<path d="M429.932,402.379v52.672h12.436v-52.672C438.277,400.617,433.17,400.719,429.932,402.379"/>
	<path d="M476.595,418.751c0.052-4.721,1.214-8.991,3.479-12.816c2.261-3.817,5.308-6.86,9.128-9.124
		c3.817-2.266,8.092-3.424,12.816-3.476c4.722,0.052,8.992,1.21,12.813,3.476c3.82,2.264,6.863,5.307,9.128,9.124
		c2.265,3.825,3.423,8.096,3.479,12.816c-0.056,4.725-1.214,8.999-3.479,12.817c-2.265,3.82-5.308,6.866-9.128,9.127
		c-3.821,2.266-8.092,3.424-12.813,3.479c-4.725-0.056-8.999-1.214-12.816-3.479c-3.82-2.261-6.867-5.307-9.128-9.127
		C477.809,427.75,476.646,423.476,476.595,418.751 M464.162,418.751c0.08,7.034,1.808,13.396,5.178,19.087
		c3.371,5.688,7.9,10.217,13.595,13.592c5.688,3.373,12.046,5.098,19.083,5.182c7.031-0.084,13.393-1.809,19.08-5.182
		c5.691-3.375,10.221-7.904,13.591-13.592c3.375-5.691,5.102-12.053,5.183-19.087c-0.081-7.03-1.808-13.392-5.183-19.083
		c-3.37-5.688-7.899-10.217-13.591-13.592c-5.688-3.37-12.049-5.098-19.08-5.178c-7.037,0.08-13.396,1.808-19.083,5.178
		c-5.694,3.375-10.224,7.904-13.595,13.592C465.97,405.359,464.242,411.721,464.162,418.751"/>
	<path d="M286.845,440.717c-11.295,4.91-22.887,4.889-34.346,0.021l4.878-11.487c8.378,3.56,16.407,3.534,24.494,0.021
		L286.845,440.717z"/>
	<path d="M460.254,399.926c-13.207-6.264-30.504-6.797-48.084,0.164l-4.592-11.605c20.315-8.043,41.259-7.785,58.021,0.164
		L460.254,399.926z"/>
	<path d="M485.008,460.62c9.002,5.59,24.474,5.792,34.286-0.122l6.441,10.691c-13.741,8.283-34.245,8.145-47.309,0.031
		L485.008,460.62z"/>
	<path d="M209.065,377.947c-9.004-5.591-24.473-5.797-34.289,0.121l-6.438-10.691c13.743-8.283,34.241-8.147,47.307-0.031
		L209.065,377.947z"/>
</g>
</svg>
