<?xml version="1.0" encoding="iso-8859-1"?>
<!-- Generator: Adobe Illustrator 16.2.0, SVG Export Plug-In . SVG Version: 6.00 Build 0)  -->
<!DOCTYPE svg PUBLIC "-//W3C//DTD SVG 1.1//EN" "http://www.w3.org/Graphics/SVG/1.1/DTD/svg11.dtd">
<svg version="1.1" id="&#x421;&#x43B;&#x43E;&#x439;_1"
	 xmlns="http://www.w3.org/2000/svg" xmlns:xlink="http://www.w3.org/1999/xlink" x="0px" y="0px" width="66.644px"
	 height="58.598px" viewBox="0 0 66.644 58.598" style="enable-background:new 0 0 66.644 58.598;" xml:space="preserve">
<g>
	<g>
		<path d="M3.125,58.598c-1.39,0-2.321-0.09-2.435-0.101C0.298,58.458,0,58.127,0,57.733c0-0.858,0.336-1.665,0.948-2.269
			c0.613-0.605,1.427-0.933,2.29-0.923c2.625,0.037,6.389-0.384,9.404-2.54c4.575-3.269,7.019-8.446,9.175-13.012
			c1.484-3.143,2.886-6.111,4.795-8.021c3.508-3.509,6.275-4.373,7.563-4.581V9.488h-1.351c-0.33,0-0.622-0.211-0.729-0.523
			c-0.104-0.312,0.001-0.657,0.263-0.856l10.449-7.951c0.274-0.21,0.655-0.21,0.929,0l10.448,7.951
			c0.261,0.199,0.367,0.544,0.261,0.856c-0.105,0.313-0.397,0.523-0.728,0.523h-1.351v16.836h4.229c0.424,0,0.768,0.343,0.768,0.768
			c0,0.424-0.344,0.768-0.768,0.768h-4.147l1.946,4.879c0.066-0.018,0.135-0.026,0.205-0.026h4.086c0.425,0,0.768,0.343,0.768,0.768
			c0,0.424-0.343,0.768-0.768,0.768h-3.688l1.894,4.748h3.885c0.425,0,0.769,0.344,0.769,0.768c0,0.425-0.344,0.768-0.769,0.768
			h-3.271l1.894,4.749h3.775c0.425,0,0.768,0.343,0.768,0.768c0,0.424-0.343,0.768-0.768,0.768h-3.162l1.896,4.748h3.972
			c0.423,0,0.768,0.344,0.768,0.769c0,0.422-0.345,0.768-0.768,0.768h-3.36l1.737,4.35c0.094,0.236,0.065,0.505-0.077,0.715
			c-0.143,0.212-0.381,0.338-0.636,0.338h-4.862c-0.313,0-0.596-0.19-0.712-0.483l-9.715-24.344
			c-0.778-1.95-2.639-3.212-4.738-3.212c-2.813,0-5.103,2.288-5.103,5.103v22.168c0,0.425-0.343,0.769-0.768,0.769h-2.729
			c-0.425,0-0.768-0.344-0.768-0.769V30.711c-1.006,0.377-2.769,1.273-4.674,3.335c-1.307,1.414-2.444,3.525-3.591,5.854
			c0.02,0.067,0.03,0.141,0.03,0.215v17.712c0,0.424-0.344,0.768-0.768,0.768c-0.423,0-0.768-0.344-0.768-0.768V42.989
			c-1.888,3.845-4.083,7.918-7.478,11.033v3.805c0,0.424-0.343,0.768-0.768,0.768c-0.424,0-0.768-0.344-0.768-0.768v-2.528
			c-0.117,0.089-0.237,0.175-0.356,0.261C11.354,58.169,6.152,58.598,3.125,58.598L3.125,58.598z M1.692,57.024
			c2.254,0.104,8.484,0.101,12.422-2.714c4.702-3.36,7.314-8.75,9.617-13.505c1.472-3.037,2.862-5.905,4.614-7.801
			c2.448-2.649,4.715-3.593,5.801-3.915v-1.133c-1.122,0.244-3.452,1.1-6.449,4.099c-1.721,1.72-3.068,4.571-4.492,7.59
			c-2.237,4.736-4.771,10.104-9.671,13.606c-3.353,2.396-7.458,2.861-10.315,2.825c-0.445,0.007-0.875,0.165-1.192,0.479
			C1.886,56.694,1.775,56.853,1.692,57.024L1.692,57.024z M59.199,56.965h3.209L50.794,27.86H35.682v29.105h1.195V35.564
			c0-3.659,2.978-6.637,6.638-6.637c2.731,0,5.151,1.641,6.164,4.178L59.199,56.965z M35.71,26.323h15.12V9.488H35.71V26.323z
			 M35.099,7.953h16.344l-8.172-6.221L35.099,7.953z M47.65,22.263h-8.76c-0.425,0-0.768-0.343-0.768-0.768v-8.266
			c0-0.424,0.343-0.768,0.768-0.768h8.76c0.424,0,0.768,0.343,0.768,0.768v8.266C48.418,21.919,48.074,22.263,47.65,22.263
			L47.65,22.263z M44.038,20.728h2.845v-2.599h-2.845V20.728z M39.658,20.728h2.844v-2.599h-2.844V20.728z M44.038,16.593h2.845
			v-2.596h-2.845V16.593z M39.658,16.593h2.844v-2.596h-2.844V16.593z M39.658,16.593"/>
	</g>
</g>
</svg>
