<?xml version="1.0" encoding="iso-8859-1"?>
<!-- Generator: Adobe Illustrator 16.2.0, SVG Export Plug-In . SVG Version: 6.00 Build 0)  -->
<!DOCTYPE svg PUBLIC "-//W3C//DTD SVG 1.1//EN" "http://www.w3.org/Graphics/SVG/1.1/DTD/svg11.dtd">
<svg version="1.1" id="&#x421;&#x43B;&#x43E;&#x439;_1"
	 xmlns="http://www.w3.org/2000/svg" xmlns:xlink="http://www.w3.org/1999/xlink" x="0px" y="0px" width="46.512px"
	 height="52.693px" viewBox="0 0 46.512 52.693" style="enable-background:new 0 0 46.512 52.693;" xml:space="preserve">
<g>
	<path d="M46.512,4.233c0-0.459-0.329-0.831-0.736-0.831h-1.46V0.831C44.315,0.372,43.986,0,43.579,0H2.932
		C2.525,0,2.196,0.372,2.196,0.831v2.571H0.736C0.33,3.402,0,3.774,0,4.233c0,5.34,1.568,10.332,4.433,14.183v30.123
		c0,2.291,1.651,4.154,3.68,4.154h30.286c2.029,0,3.68-1.863,3.68-4.154V18.417C44.943,14.565,46.512,9.573,46.512,4.233
		L46.512,4.233z M45.025,5.064c-0.128,4.029-1.188,7.671-2.947,10.651V8.466h1.501c0.407,0,0.736-0.372,0.736-0.831V5.064H45.025z
		 M3.668,1.662h39.174v5.143h-3.212c-0.406,0-0.736,0.372-0.736,0.831c0,0.459,0.33,0.831,0.736,0.831h0.975v9.388
		c-2.816,3.523-6.784,5.727-11.339,5.942v-1.317c0-0.458-0.329-0.831-0.735-0.831H17.98c-0.407,0-0.736,0.373-0.736,0.831v1.317
		c-4.555-0.215-8.522-2.418-11.338-5.942V8.466h26.393c0.407,0,0.736-0.372,0.736-0.831c0-0.458-0.329-0.831-0.736-0.831H3.668
		V1.662z M18.717,23.311h9.078v2.67h-9.078V23.311z M1.486,5.064h0.71v2.571c0,0.459,0.33,0.831,0.736,0.831h1.501v7.249
		C2.675,12.735,1.614,9.093,1.486,5.064L1.486,5.064z M38.398,51.031H8.113c-1.217,0-2.208-1.118-2.208-2.492V20.17
		c3.073,3.247,7.038,5.099,11.339,5.289v1.353c0,0.459,0.329,0.831,0.736,0.831h10.55c0.406,0,0.736-0.372,0.736-0.831v-1.353
		c4.301-0.19,8.266-2.042,11.338-5.289v28.369C40.605,49.913,39.615,51.031,38.398,51.031L38.398,51.031z M38.398,51.031"/>
</g>
</svg>
