<?xml version="1.0" encoding="iso-8859-1"?>
<!-- Generator: Adobe Illustrator 16.2.0, SVG Export Plug-In . SVG Version: 6.00 Build 0)  -->
<!DOCTYPE svg PUBLIC "-//W3C//DTD SVG 1.1//EN" "http://www.w3.org/Graphics/SVG/1.1/DTD/svg11.dtd">
<svg version="1.1" id="&#x421;&#x43B;&#x43E;&#x439;_1"
	 xmlns="http://www.w3.org/2000/svg" xmlns:xlink="http://www.w3.org/1999/xlink" x="0px" y="0px" width="52.862px"
	 height="57.582px" viewBox="0 0 52.862 57.582" style="enable-background:new 0 0 52.862 57.582;" xml:space="preserve">
<g>
	<g>
		<defs>
			<rect id="SVGID_1_" width="52.862" height="57.582"/>
		</defs>
		<clipPath id="SVGID_2_">
			<use xlink:href="#SVGID_1_"  style="overflow:visible;"/>
		</clipPath>
		<path style="clip-path:url(#SVGID_2_);" d="M52.79,20.162c-0.132-0.726-0.504-1.349-1.047-1.755L27.779,0.473l-0.027-0.021
			c-0.047-0.036-0.09-0.06-0.118-0.076c-0.083-0.056-0.182-0.118-0.296-0.171c-0.074-0.035-0.14-0.055-0.183-0.069l-0.059-0.02
			c-0.052-0.019-0.122-0.045-0.208-0.064c-0.084-0.019-0.155-0.025-0.208-0.03l-0.06-0.007C26.571,0.008,26.503,0,26.42,0
			c-0.081,0-0.149,0.008-0.198,0.015L26.16,0.021c-0.052,0.005-0.124,0.012-0.207,0.03c-0.084,0.019-0.155,0.044-0.206,0.063
			l-0.059,0.02c-0.044,0.015-0.111,0.036-0.185,0.07c-0.113,0.052-0.207,0.112-0.294,0.17c-0.027,0.015-0.072,0.041-0.121,0.078
			l-0.01,0.007c-0.003,0.002-0.007,0.005-0.011,0.008L1.099,18.406c-0.542,0.406-0.914,1.03-1.047,1.755
			c-0.132,0.726-0.009,1.467,0.347,2.087c0.45,0.786,1.211,1.254,2.034,1.254c0.474,0,0.934-0.157,1.33-0.454l0.375-0.279v32.979
			H3.258c-0.429,0-0.775,0.397-0.775,0.886c0,0.49,0.347,0.887,0.775,0.887h16.545c0.428,0,0.776-0.396,0.776-0.887
			c0-0.488-0.348-0.886-0.776-0.886h-0.879V25.394h14.994v30.355h-0.879c-0.429,0-0.775,0.397-0.775,0.886
			c0,0.49,0.347,0.887,0.775,0.887h16.545c0.429,0,0.775-0.396,0.775-0.887c0-0.488-0.347-0.886-0.775-0.886h-0.879v-32.98
			l0.375,0.28c0.396,0.297,0.856,0.454,1.33,0.454c0.823,0,1.583-0.469,2.034-1.254C52.8,21.629,52.923,20.888,52.79,20.162
			L52.79,20.162z M51.146,21.278c-0.163,0.284-0.438,0.453-0.737,0.453c-0.17,0-0.336-0.057-0.479-0.164l-14.738-11.03
			c-0.358-0.268-0.839-0.153-1.074,0.255c-0.234,0.41-0.134,0.958,0.224,1.227l12.816,9.59c-0.002,0.021-0.003,0.041-0.003,0.063
			V50.08h-9.152c-0.428,0-0.775,0.396-0.775,0.886s0.348,0.886,0.775,0.886h9.152v3.897H35.469V24.507
			c0-0.489-0.347-0.886-0.775-0.886H18.149c-0.429,0-0.776,0.397-0.776,0.886v31.242H5.688v-3.897h9.152
			c0.428,0,0.775-0.396,0.775-0.886s-0.348-0.886-0.775-0.886H5.688V21.673c0-0.021-0.001-0.042-0.002-0.063L26.421,6.092
			l1.608,1.204c0.358,0.268,0.84,0.153,1.074-0.256s0.135-0.958-0.225-1.227l-2.033-1.521c-0.258-0.193-0.591-0.193-0.85,0
			L2.912,21.568c-0.143,0.107-0.309,0.164-0.48,0.164c-0.298,0-0.574-0.169-0.737-0.454c-0.128-0.224-0.173-0.492-0.125-0.755
			s0.182-0.488,0.378-0.635l23.958-17.93c0.024-0.013,0.047-0.027,0.07-0.043c0.029-0.02,0.076-0.051,0.106-0.066
			c0.007-0.002,0.014-0.004,0.021-0.007c0.021-0.007,0.042-0.013,0.063-0.021l0.051-0.019c0.011-0.004,0.022-0.008,0.034-0.012
			c0.011-0.001,0.021-0.002,0.033-0.003l0.108-0.012c0.011-0.001,0.021-0.002,0.025-0.003c0.01,0.001,0.021,0.002,0.03,0.003
			l0.107,0.012c0.011,0,0.022,0.002,0.033,0.003c0.012,0.004,0.024,0.009,0.035,0.013l0.05,0.018
			c0.021,0.007,0.043,0.014,0.064,0.021c0.007,0.002,0.014,0.004,0.021,0.006c0.031,0.017,0.08,0.049,0.106,0.066
			c0.022,0.016,0.044,0.029,0.068,0.043l23.959,17.93c0.196,0.147,0.33,0.373,0.378,0.636C51.32,20.786,51.275,21.054,51.146,21.278
			L51.146,21.278z M51.146,21.278"/>
	</g>
	<path d="M32.662,8.645l-1.259-0.942c-0.358-0.268-0.84-0.154-1.074,0.256c-0.234,0.409-0.135,0.958,0.224,1.226l1.259,0.942
		c0.131,0.098,0.278,0.145,0.425,0.145c0.253,0,0.5-0.141,0.649-0.4C33.12,9.462,33.021,8.913,32.662,8.645L32.662,8.645z
		 M32.662,8.645"/>
	<path d="M14.013,23.622H9.049c-0.428,0-0.776,0.397-0.776,0.886v17.009c0,0.489,0.348,0.886,0.776,0.886h4.964
		c0.428,0,0.775-0.396,0.775-0.886V24.507C14.788,24.019,14.441,23.622,14.013,23.622L14.013,23.622z M13.237,25.394v2.953H9.824
		v-2.953H13.237z M9.824,40.631V30.118h3.413v10.513H9.824z M9.824,40.631"/>
	<path d="M38.83,42.402h4.964c0.428,0,0.775-0.396,0.775-0.886V24.507c0-0.489-0.348-0.886-0.775-0.886H38.83
		c-0.429,0-0.775,0.397-0.775,0.886v17.009C38.055,42.006,38.401,42.402,38.83,42.402L38.83,42.402z M39.605,40.631V30.118h3.413
		v10.513H39.605z M43.018,25.394v2.953h-3.412v-2.953H43.018z M43.018,25.394"/>
</g>
</svg>
