<?xml version="1.0" encoding="iso-8859-1"?>
<!-- Generator: Adobe Illustrator 16.2.0, SVG Export Plug-In . SVG Version: 6.00 Build 0)  -->
<!DOCTYPE svg PUBLIC "-//W3C//DTD SVG 1.1//EN" "http://www.w3.org/Graphics/SVG/1.1/DTD/svg11.dtd">
<svg version="1.1" id="&#x421;&#x43B;&#x43E;&#x439;_1"
	 xmlns="http://www.w3.org/2000/svg" xmlns:xlink="http://www.w3.org/1999/xlink" x="0px" y="0px" width="40.771px"
	 height="59.357px" viewBox="0 0 40.771 59.357" style="enable-background:new 0 0 40.771 59.357;" xml:space="preserve">
<g>
	<path d="M0,2.73v53.898c0,1.505,1.225,2.729,2.73,2.729h35.312c1.505,0,2.729-1.225,2.729-2.729V2.73
		c0-1.505-1.225-2.73-2.729-2.73H2.73C1.225,0,0,1.225,0,2.73L0,2.73z M13.01,6.447c0,0.993,0.808,1.8,1.8,1.8h11.152
		c0.992,0,1.8-0.808,1.8-1.8V1.742h2.904v7.493c0,1.057-0.86,1.917-1.917,1.917H12.022c-1.057,0-1.917-0.86-1.917-1.917V1.742h2.904
		V6.447z M14.752,1.742H26.02v4.705c0,0.03-0.028,0.058-0.058,0.058H14.81c-0.03,0-0.058-0.028-0.058-0.058V1.742z M26.89,30.551
		c-0.429,3.207-3.181,5.691-6.504,5.691c-3.323,0-6.075-2.484-6.503-5.691H26.89z M13.882,28.808
		c0.428-3.208,3.18-5.692,6.503-5.692c3.324,0,6.076,2.483,6.504,5.692H13.882z M14.752,57.615v-4.704
		c0-0.03,0.028-0.059,0.058-0.059h11.152c0.029,0,0.058,0.028,0.058,0.059v4.704H14.752z M27.762,57.615v-4.704
		c0-0.993-0.808-1.801-1.8-1.801H14.81c-0.993,0-1.8,0.808-1.8,1.801v4.704h-2.904v-7.493c0-1.057,0.86-1.916,1.917-1.916h16.727
		c1.057,0,1.917,0.859,1.917,1.916v7.493H27.762z M38.042,57.615h-5.634v-7.493c0-2.017-1.642-3.658-3.659-3.658H12.022
		c-2.018,0-3.659,1.642-3.659,3.658v7.493H2.73c-0.545,0-0.988-0.443-0.988-0.987V30.551h10.384
		c0.437,4.171,3.974,7.434,8.259,7.434c4.286,0,7.823-3.263,8.26-7.434h10.384v26.077C39.029,57.172,38.587,57.615,38.042,57.615
		L38.042,57.615z M39.029,2.73v26.078H28.646c-0.438-4.171-3.975-7.435-8.26-7.435c-4.285,0-7.822,3.263-8.259,7.435H1.742V2.73
		c0-0.544,0.443-0.988,0.988-0.988h5.634v7.493c0,2.018,1.641,3.659,3.659,3.659h16.727c2.018,0,3.659-1.642,3.659-3.659V1.742
		h5.634C38.587,1.742,39.029,2.186,39.029,2.73L39.029,2.73z M39.029,2.73"/>
</g>
</svg>
