<?xml version="1.0" encoding="iso-8859-1"?>
<!-- Generator: Adobe Illustrator 16.2.0, SVG Export Plug-In . SVG Version: 6.00 Build 0)  -->
<!DOCTYPE svg PUBLIC "-//W3C//DTD SVG 1.1//EN" "http://www.w3.org/Graphics/SVG/1.1/DTD/svg11.dtd">
<svg version="1.1" id="&#x421;&#x43B;&#x43E;&#x439;_1"
	 xmlns="http://www.w3.org/2000/svg" xmlns:xlink="http://www.w3.org/1999/xlink" x="0px" y="0px" width="30.549px"
	 height="54.392px" viewBox="0 0 30.549 54.392" style="enable-background:new 0 0 30.549 54.392;" xml:space="preserve">
<g>
	<path d="M28.047,0H2.501C1.122,0,0,1.122,0,2.501v19.585c0,1.379,1.122,2.501,2.501,2.501h8.13l0.445,3.558
		c0.05,0.404,0.395,0.7,0.791,0.7c0.033,0,0.066-0.002,0.1-0.007c0.437-0.054,0.748-0.453,0.693-0.891l-0.1-0.806h1.916v25.652
		H8.462c-0.441,0-0.798,0.356-0.798,0.798c0,0.44,0.357,0.799,0.798,0.799h13.624c0.44,0,0.799-0.358,0.799-0.799
		c0-0.441-0.358-0.798-0.799-0.798h-6.014V27.143h1.916l-0.101,0.806c-0.055,0.438,0.256,0.837,0.693,0.891
		c0.034,0.005,0.067,0.007,0.1,0.007c0.397,0,0.741-0.296,0.792-0.7l0.444-3.558h8.13c1.38,0,2.502-1.122,2.502-2.501V2.501
		C30.549,1.122,29.427,0,28.047,0L28.047,0z M12.36,25.546l-0.12-0.958h2.236v0.958H12.36z M8.647,18.733H7.61
		c-0.027,0-0.053-0.026-0.053-0.053v-8.516c0-0.027,0.026-0.053,0.053-0.053h15.328c0.027,0,0.054,0.026,0.054,0.053v8.516
		c0,0.027-0.026,0.053-0.054,0.053h-1.036c-0.334-0.989-1.27-1.703-2.37-1.703h-8.515C9.917,17.03,8.98,17.745,8.647,18.733
		L8.647,18.733z M11.017,18.627h8.515c0.499,0,0.904,0.405,0.904,0.903c0,0,0,0.001,0,0.001v0.002c0,0.498-0.405,0.903-0.904,0.903
		h-8.515c-0.499,0-0.905-0.406-0.905-0.905C10.112,19.033,10.518,18.627,11.017,18.627L11.017,18.627z M18.627,22.033l-0.12,0.958
		h-2.435v-0.958H18.627z M11.921,22.033h2.555v0.958h-2.436L11.921,22.033z M18.189,25.546h-2.116v-0.958h2.235L18.189,25.546z
		 M28.953,22.086c0,0.499-0.406,0.905-0.905,0.905h-7.931l0.133-1.063c0.776-0.233,1.395-0.833,1.652-1.598h1.036
		c0.91,0,1.65-0.74,1.65-1.65v-8.516c0-0.909-0.74-1.649-1.65-1.649H7.61c-0.909,0-1.649,0.74-1.649,1.649v8.516
		c0,0.91,0.74,1.65,1.649,1.65h1.037c0.258,0.765,0.876,1.365,1.652,1.598l0.133,1.063h-7.93c-0.499,0-0.905-0.406-0.905-0.905
		V2.501c0-0.499,0.406-0.905,0.905-0.905h25.546c0.499,0,0.905,0.406,0.905,0.905V22.086z M28.953,22.086"/>
</g>
</svg>
